# xmcd
#
# Track frame offsets:
#	150
#	13004
#	28634
#	43109
#	68593
#	80023
#	92458
#	118843
#	131832
#	145834
#	157159
#	172227
#	183835
#	201655
#	240600
#
# Disc length: 3376 seconds
#
# Revision: 1
# Processed by: cddbd v1.5.2PL0 Copyright (c) Steve Scherf et al.
# Submitted via: audiograbber 1.83.01
#
DISCID=d80d2e0f
DTITLE=Various Artist - Best of Tango Argentino
DYEAR=2008
DGENRE=Tango
TTITLE0=Trio Pantango - Milonga al toque
TTITLE1=ZUM - The Disillusioned Guitarist
TTITLE2=Tango Siempre - Llanto de amor
TTITLE3=Tango Orkesteri Unto - Preparense
TTITLE4=Enrique Ugarte - Caseron de tejas
TTITLE5=Trio Hugo Diaz - Milonga de mis amores
TTITLE6=Trio Pantango - Milonga de angel
TTITLE7=Enrique Ugarte - Payadora
TTITLE8=Tango Siempre - Flores de alma
TTITLE9=ZUM - El enterriano
TTITLE10=Trio Pantango - Los Mareados
TTITLE11=Enrique Ugarte - El Portenito
TTITLE12=Tango Enrosque - Subitango
TTITLE13=Tango Siempre - Rutland Water
TTITLE14=Tango Siempre - La trampera
EXTD=
EXTT0=
EXTT1=
EXTT2=
EXTT3=
EXTT4=
EXTT5=
EXTT6=
EXTT7=
EXTT8=
EXTT9=
EXTT10=
EXTT11=
EXTT12=
EXTT13=
EXTT14=
PLAYORDER=
